<?xml version="1.0" standalone="no"?>
<!DOCTYPE svg PUBLIC "-//W3C//DTD SVG 20010904//EN"
 "http://www.w3.org/TR/2001/REC-SVG-20010904/DTD/svg10.dtd">
<svg version="1.0" xmlns="http://www.w3.org/2000/svg"
 width="864.000000pt" height="864.000000pt" viewBox="0 0 864.000000 864.000000"
 preserveAspectRatio="xMidYMid meet">
<metadata>
Created by potrace 1.13, written by Peter Selinger 2001-2015
</metadata>
<g transform="translate(0.000000,864.000000) scale(0.100000,-0.100000)"
fill="#000000" stroke="none">
<path d="M3248 8623 c31 -16 32 -19 32 -79 0 -44 -5 -68 -18 -84 -17 -21 -19
-21 -55 -7 -25 11 -42 28 -54 51 -11 25 -23 36 -38 36 -26 0 -37 -9 -28 -24 4
-6 8 -27 9 -47 4 -74 29 -88 179 -96 52 -3 64 -3 155 0 68 2 77 23 25 58 -44
30 -48 70 -9 87 14 7 31 27 39 46 20 48 29 50 75 24 46 -27 73 -18 78 26 l3
26 -213 -1 c-203 0 -211 -1 -180 -16z"/>
<path d="M3740 8631 c0 -6 5 -13 10 -16 17 -11 11 -51 -11 -71 -15 -13 -36
-19 -71 -19 -40 0 -53 -4 -62 -20 -17 -30 -31 -43 -52 -47 -10 -2 -20 -12 -22
-23 -2 -11 -10 -33 -18 -50 -7 -16 -17 -52 -21 -79 -9 -56 -22 -63 -42 -21
-24 51 -88 76 -115 44 -8 -10 -27 -21 -41 -25 -42 -10 -95 -66 -95 -100 0 -20
-9 -39 -27 -56 -39 -35 -55 -39 -93 -20 -31 15 -33 15 -46 -3 -8 -10 -14 -34
-14 -52 0 -29 5 -36 30 -44 36 -13 37 -28 11 -122 -21 -70 -16 -82 19 -44 20
21 22 21 35 4 12 -16 9 -22 -21 -52 -41 -41 -43 -73 -9 -105 l25 -24 31 23
c26 19 35 21 61 12 41 -15 58 -14 58 2 0 22 31 42 95 62 33 11 73 32 88 47
l28 27 -26 17 c-29 19 -58 74 -53 101 2 11 13 19 29 21 30 4 99 -58 99 -88 0
-12 7 -20 17 -20 17 0 83 -65 83 -82 0 -12 94 -10 107 3 6 6 19 12 29 13 11 2
20 13 22 27 5 32 20 49 43 49 12 0 19 7 19 20 0 26 34 60 60 60 11 0 30 -10
42 -22 21 -21 21 -21 35 -2 8 10 19 18 25 16 22 -6 49 11 64 39 8 16 20 29 27
27 36 -6 147 75 147 108 0 22 39 22 66 2 22 -18 29 -19 50 -8 18 10 27 11 36
2 15 -15 3 -41 -27 -52 -26 -10 -32 -24 -15 -35 6 -3 10 1 10 9 0 22 16 20 40
-4 16 -16 25 -18 40 -10 10 5 41 10 67 10 27 0 55 6 62 13 10 10 15 8 25 -6
13 -17 51 -14 40 4 -3 5 5 9 18 8 13 0 17 -3 11 -6 -18 -7 -16 -33 2 -33 9 0
15 -9 15 -22 0 -19 -2 -20 -10 -8 -7 10 -9 -6 -5 -54 4 -61 3 -67 -9 -51 -12
17 -16 17 -30 6 -14 -12 -20 -11 -39 5 -50 44 -79 51 -157 35 -31 -6 -37 -9
-18 -10 23 -1 29 -8 43 -57 15 -51 15 -58 1 -73 -9 -10 -16 -23 -16 -29 0 -15
-67 -16 -72 -1 -4 12 -50 -25 -47 -38 1 -4 -8 -12 -20 -18 -11 -5 -21 -14 -21
-20 0 -6 -17 -10 -40 -8 -22 1 -42 -2 -45 -8 -4 -5 1 -9 9 -9 9 0 16 -3 16 -7
0 -13 -89 -8 -102 5 -7 7 -21 12 -32 12 -18 0 -18 -1 -2 -19 21 -23 18 -54 -6
-59 -11 -2 -23 8 -33 28 -10 20 -22 30 -33 28 -9 -2 -16 -8 -15 -13 2 -15 -18
-36 -28 -29 -5 3 -9 1 -9 -5 0 -5 -2 -16 -5 -24 -3 -7 0 -14 7 -15 64 -8 74
-13 63 -32 -5 -8 -10 -8 -20 0 -7 6 -20 8 -29 4 -9 -3 -16 -1 -16 5 0 19 -30
12 -53 -13 -28 -30 -70 -44 -129 -41 -33 1 -49 -3 -53 -12 -2 -8 -10 -11 -16
-8 -5 4 -19 -1 -29 -10 -12 -11 -20 -13 -25 -6 -4 8 -12 8 -25 1 -26 -14 -30
-13 -23 6 4 11 2 15 -6 13 -7 -3 -12 -9 -12 -14 0 -6 -7 -18 -16 -27 -11 -13
-12 -21 -3 -38 6 -11 10 -35 8 -53 -2 -27 -7 -31 -25 -29 -13 2 -23 -2 -23 -8
0 -7 -9 -25 -21 -41 -17 -24 -19 -32 -8 -45 10 -12 8 -17 -7 -29 -13 -11 -14
-13 -3 -10 9 3 21 -1 28 -9 7 -8 19 -12 27 -9 8 3 14 0 14 -6 0 -6 -10 -11
-22 -11 -21 -1 -22 -2 -5 -14 9 -7 15 -20 12 -27 -3 -8 -1 -20 4 -28 7 -11 13
-9 30 8 11 11 29 21 39 20 10 0 12 -3 5 -6 -19 -7 -16 -21 5 -26 13 -3 10 -6
-10 -11 -32 -9 -35 -20 -10 -36 18 -12 2 -10 -78 6 -23 5 -30 3 -30 -9 0 -8 7
-20 15 -27 12 -10 16 -9 21 4 7 18 34 22 34 6 0 -6 -7 -13 -15 -16 -10 -4 -12
-10 -6 -18 6 -7 4 -18 -5 -30 -8 -11 -14 -28 -14 -38 0 -28 -31 -19 -43 12 -4
10 -6 8 -6 -6 -1 -12 -11 -29 -23 -37 l-23 -16 23 6 c12 3 22 10 22 15 0 16
21 -3 30 -28 6 -15 15 -22 25 -18 8 4 17 -1 21 -10 3 -9 13 -16 21 -16 12 0
13 -3 4 -14 -7 -8 -8 -16 -4 -18 5 -1 16 -19 26 -38 9 -19 17 -29 17 -22 0 6
4 12 8 12 13 0 14 -71 1 -86 -9 -11 -5 -16 15 -26 22 -9 26 -17 24 -42 -4 -39
-21 -40 -28 -2 -5 27 -6 28 -20 11 -12 -14 -12 -19 -2 -23 9 -3 10 -8 2 -17
-8 -9 -6 -14 5 -19 18 -7 20 -52 3 -60 -7 -3 -1 -4 15 -1 30 6 36 -9 10 -24
-16 -9 -16 -10 5 -11 12 0 22 -5 22 -10 0 -7 -13 -8 -35 -4 -27 5 -36 3 -41
-10 -3 -9 -15 -16 -25 -16 -12 0 -19 -7 -19 -20 0 -11 7 -20 15 -20 19 0 39
-37 23 -42 -8 -3 -8 -9 1 -24 10 -15 11 -15 7 -1 -3 9 -1 17 5 17 5 0 14 12
20 28 l11 27 14 -32 c13 -30 17 -32 55 -28 38 4 68 15 41 15 -21 0 -13 37 9
43 16 4 24 -2 35 -30 12 -28 18 -32 29 -23 9 7 12 23 8 46 -4 25 -1 40 13 55
19 21 29 79 13 79 -5 0 -9 7 -9 15 0 8 7 15 15 15 8 0 15 4 15 9 0 5 -9 7 -20
4 -11 -3 -20 -9 -20 -14 0 -5 -9 -9 -20 -9 -11 0 -20 5 -20 10 0 6 7 10 15 10
8 0 14 5 13 12 -2 6 8 15 22 19 l25 7 -25 1 c-15 1 -31 -4 -38 -11 -9 -9 -12
-8 -12 4 0 9 9 18 21 21 12 3 18 10 14 16 -3 6 -1 11 4 11 16 0 51 33 51 47 0
18 21 16 35 -4 11 -15 13 -15 19 5 7 22 36 31 36 12 0 -5 4 -10 8 -10 4 0 18
33 31 73 20 67 78 165 126 213 57 57 206 138 205 110 -1 -16 -29 -63 -30 -48
0 18 -23 15 -48 -8 -12 -11 -24 -20 -28 -20 -15 0 -95 -94 -127 -148 -12 -20
-23 -30 -25 -24 -2 7 -8 10 -12 7 -5 -3 -5 -16 -1 -28 5 -13 5 -30 0 -39 -5
-8 -10 -46 -11 -84 -2 -54 0 -69 11 -69 18 0 22 -40 8 -85 -12 -40 -10 -120 4
-134 5 -6 9 -21 9 -35 0 -19 -3 -22 -9 -12 -7 11 -10 9 -13 -10 -4 -23 -5 -22
-27 14 -38 62 -35 35 8 -69 38 -91 39 -98 23 -113 -25 -24 -42 -58 -36 -74 3
-8 -2 -20 -11 -27 -13 -10 -23 -9 -60 11 -44 23 -46 24 -76 7 -17 -10 -41 -18
-54 -18 -65 0 -124 -22 -164 -61 -23 -22 -41 -47 -41 -54 0 -7 -3 -15 -7 -17
-5 -1 -29 -46 -55 -98 -39 -79 -48 -107 -52 -167 -3 -40 -10 -81 -15 -92 -13
-24 -15 -108 -2 -115 17 -11 21 -139 10 -323 -6 -103 -15 -193 -20 -199 -5 -7
-9 -25 -9 -40 1 -101 -3 -132 -25 -178 -13 -28 -27 -76 -30 -106 -10 -100 -27
-159 -52 -181 -12 -13 -23 -30 -23 -40 0 -10 -7 -24 -15 -33 -8 -8 -31 -47
-50 -86 -29 -61 -33 -79 -28 -119 3 -32 -1 -68 -12 -107 -11 -33 -17 -84 -16
-116 2 -50 0 -58 -21 -69 -35 -19 -138 -120 -138 -136 0 -7 -2 -13 -5 -13 -10
0 -140 64 -167 82 -15 10 -29 14 -32 10 -9 -15 36 -49 117 -88 42 -20 80 -40
82 -45 3 -4 -10 -24 -30 -44 -19 -20 -35 -41 -35 -45 0 -16 -93 -100 -110
-100 -13 0 -13 -26 0 -50 7 -14 6 -17 -8 -16 -27 2 -18 -87 15 -143 14 -24 21
-41 15 -37 -13 8 -29 -12 -72 -97 -21 -41 -47 -77 -61 -85 -24 -12 -24 -12 6
-10 17 2 89 -1 160 -6 108 -7 133 -11 148 -27 10 -10 25 -19 35 -19 14 0 17
-11 19 -65 0 -36 -3 -63 -7 -60 -18 11 -95 -88 -86 -111 5 -13 9 -14 21 -4 9
7 17 11 19 9 1 -2 -21 -23 -51 -47 -32 -26 -53 -37 -53 -28 0 9 -7 12 -18 9
-15 -3 -21 8 -36 64 -9 37 -17 78 -17 90 1 31 -13 36 -34 13 -17 -18 -17 -24
-3 -80 l15 -60 -66 -1 c-36 0 -60 -3 -53 -6 25 -10 11 -22 -22 -16 -39 6 -52
-7 -36 -37 9 -16 8 -22 -5 -27 -13 -5 -14 -7 -3 -14 11 -8 11 -10 -1 -18 -9
-6 -10 -11 -2 -15 7 -5 7 -12 -1 -25 -9 -16 -6 -24 21 -52 31 -33 66 -88 59
-94 -2 -2 -33 -17 -70 -34 -61 -29 -127 -90 -128 -117 -1 -10 -36 -54 -43 -54
-3 0 -3 10 0 22 3 16 2 19 -4 10 -7 -9 -16 1 -32 33 -12 25 -29 45 -37 45 -8
0 -12 4 -9 10 4 6 -1 7 -11 3 -13 -5 -15 -2 -10 15 6 17 4 21 -7 16 -10 -3
-17 4 -21 21 -5 18 -12 25 -21 21 -8 -3 -15 -1 -15 5 0 10 -34 62 -57 87 -7 7
-13 17 -13 21 0 4 -13 23 -30 42 -41 47 -43 50 -59 82 -12 23 -31 37 -31 22 0
-5 82 -127 91 -135 8 -8 69 -100 69 -106 0 -2 24 -37 54 -77 29 -39 86 -121
125 -182 86 -130 104 -151 139 -160 46 -12 49 -18 39 -112 -4 -48 -5 -152 -2
-230 6 -136 5 -143 -13 -143 -10 0 -27 -9 -38 -21 -15 -16 -16 -21 -4 -19 28
4 60 0 60 -8 0 -4 -18 -9 -40 -10 -25 -2 -40 2 -40 9 0 8 -4 8 -12 2 -15 -11
-108 -5 -108 7 0 13 27 19 38 8 6 -6 12 -6 16 1 4 6 20 11 37 11 31 0 41 23
14 34 -8 3 -15 2 -15 -2 0 -5 -21 -9 -47 -11 -26 -1 -52 -6 -59 -11 -6 -6 -14
-7 -17 -3 -4 3 -9 -1 -13 -10 -4 -12 -11 -14 -31 -6 -13 5 -38 9 -54 9 -16 0
-29 4 -29 9 0 5 -16 9 -36 9 -27 0 -38 -5 -41 -18 -3 -10 -16 -21 -29 -24 -25
-7 -31 -20 -14 -31 5 -3 26 -3 45 1 31 5 35 9 29 28 -6 18 -5 19 9 8 9 -7 26
-10 40 -7 14 4 28 2 31 -4 4 -6 16 -11 27 -11 12 0 19 -5 16 -12 -2 -7 -16
-13 -30 -13 -15 0 -27 -4 -27 -10 0 -5 10 -10 22 -10 13 0 24 -9 30 -24 6 -16
13 -21 26 -17 14 5 13 3 -3 -9 -17 -14 -20 -14 -28 0 -10 18 -28 20 -25 3 2
-6 -5 -14 -16 -16 -11 -2 -16 0 -12 6 4 6 -2 19 -12 29 -10 10 -22 26 -26 37
-4 13 -12 17 -29 12 -12 -4 -30 -9 -41 -11 -10 -2 -23 -8 -30 -13 -6 -5 -24
-12 -41 -15 -16 -3 -38 -9 -47 -12 -13 -5 -20 0 -28 19 -8 23 -14 25 -37 20
-16 -4 -30 -10 -33 -14 -3 -4 -25 -12 -50 -18 -34 -8 -46 -8 -52 1 -18 29 -8
37 47 37 32 0 55 4 55 11 0 6 -21 9 -57 6 -44 -3 -58 -8 -64 -23 -6 -18 -7
-18 -14 -1 -10 24 20 46 61 47 38 0 71 31 51 48 -14 12 -72 -3 -99 -26 -8 -6
-18 -9 -21 -5 -12 12 -7 21 16 28 20 6 20 8 3 12 -10 3 -21 1 -25 -4 -3 -4
-16 -13 -27 -20 -19 -10 -23 -9 -28 10 -6 22 -7 21 -31 -7 -13 -17 -22 -33
-20 -37 3 -4 25 -10 50 -13 51 -8 54 -16 24 -57 l-20 -29 -27 20 c-16 12 -45
20 -72 21 -64 1 -100 9 -100 21 0 5 12 7 30 3 20 -4 35 -2 45 9 17 16 20 36 6
36 -5 0 -12 11 -15 24 -6 25 -38 42 -56 31 -14 -9 -3 -24 27 -36 31 -12 24
-22 -27 -39 -36 -12 -43 -12 -58 3 -15 16 -15 17 10 17 15 0 29 4 33 9 8 15
-14 24 -29 12 -12 -10 -45 -19 -78 -20 -10 -1 -18 -7 -18 -14 0 -15 -45 -57
-60 -57 -6 0 -10 6 -10 13 0 8 -3 8 -8 1 -13 -19 -86 -64 -105 -64 -33 0 -17
43 21 52 36 9 40 19 16 39 -13 11 -21 10 -49 -5 -26 -15 -37 -16 -52 -6 -15 9
-15 11 -1 6 11 -3 15 -1 12 8 -14 37 -108 -3 -120 -50 -4 -16 -14 -24 -28 -25
-20 0 -20 -1 -1 -9 14 -6 16 -9 5 -10 -30 -4 -46 2 -72 31 -32 35 -50 37 -63
7 -7 -16 -17 -22 -34 -20 -15 2 -21 0 -17 -7 4 -6 1 -11 -6 -11 -8 0 -15 11
-16 25 -1 17 3 25 14 25 9 0 14 6 11 13 -2 7 -16 11 -34 9 -17 -2 -34 1 -38 7
-3 6 -17 11 -30 11 -13 0 -44 9 -70 20 -26 11 -57 20 -69 20 -28 0 -76 -36
-76 -56 0 -8 -7 -14 -15 -14 -9 0 -27 -7 -41 -16 -19 -13 -28 -14 -37 -5 -8 8
-5 11 13 11 23 1 23 2 6 11 -10 6 -33 9 -52 6 -25 -4 -36 -1 -43 11 -5 9 -13
16 -18 15 -4 -1 -17 0 -28 3 -11 3 -51 -2 -90 -12 -38 -9 -81 -18 -95 -21 -14
-2 -32 -11 -41 -19 -9 -8 -27 -15 -40 -16 -13 0 -34 -5 -47 -11 -17 -8 -25 -8
-30 0 -4 6 -22 14 -39 18 -34 7 -42 22 -21 43 9 9 8 12 -5 12 -16 0 -17 -49
-17 -720 l0 -720 1508 0 c1193 0 1511 3 1521 13 11 9 14 9 18 0 4 -10 573 -13
2799 -13 l2794 0 0 724 0 725 -54 6 c-34 5 -68 3 -91 -5 -32 -10 -39 -10 -57
6 -18 17 -21 18 -32 2 -11 -15 -29 -16 -152 -11 -76 2 -143 5 -149 5 -117 -4
-126 -5 -116 -15 15 -15 14 -27 -4 -27 -7 0 -19 8 -24 18 -10 16 -12 16 -26
-3 -14 -18 -30 -20 -148 -23 -176 -4 -171 -4 -175 8 -2 5 -9 10 -15 10 -8 0
-13 37 -14 123 -5 210 -31 346 -101 520 -66 164 -152 296 -267 409 -55 55
-126 118 -157 141 -32 23 -58 45 -58 48 0 13 69 39 104 39 20 0 36 4 36 9 0
12 -96 74 -186 119 -176 88 -357 135 -590 152 -76 5 -143 10 -147 10 -5 0 -5
4 -2 10 12 19 -17 51 -69 75 -73 33 -85 65 -24 65 32 0 128 58 128 78 0 15 -1
15 -75 -3 -33 -8 -81 -15 -107 -15 l-48 0 0 60 c0 66 -18 123 -44 137 -22 12
-43 95 -48 180 l-3 68 41 9 c37 7 43 13 55 48 7 23 20 48 28 56 19 18 41 78
41 110 0 47 25 14 39 -51 15 -74 38 -94 27 -24 -4 23 -10 52 -13 65 -5 21 -3
23 27 20 45 -4 71 -42 78 -110 7 -76 14 -81 74 -58 73 27 89 45 82 89 -5 33
-3 37 28 54 45 24 64 59 72 132 4 44 2 68 -9 89 -20 37 -19 46 5 46 13 0 22 9
26 26 9 36 -1 177 -15 202 -6 12 -16 45 -21 74 -7 33 -25 73 -48 107 -20 29
-59 88 -87 130 -57 88 -187 217 -206 205 -8 -4 -10 -3 -5 4 4 7 -2 16 -16 21
-40 15 -49 33 -41 87 l6 49 15 -35 c14 -33 15 -34 23 -12 5 12 15 23 24 23 25
2 29 4 60 24 56 37 58 42 30 67 -27 23 -33 40 -13 35 7 -1 13 9 14 23 2 34 -5
43 -22 29 -21 -17 -27 -5 -19 38 7 34 8 36 16 16 11 -30 37 -29 51 2 12 28 28
33 28 10 0 -8 5 -15 10 -15 6 0 10 -7 10 -15 0 -8 -6 -15 -14 -15 -16 0 -29
-27 -20 -41 3 -6 15 -4 30 5 29 20 34 20 34 0 0 -12 7 -14 28 -10 15 3 34 1
42 -4 13 -9 13 -12 -3 -24 -15 -12 -16 -14 -2 -20 8 -3 15 -1 15 4 0 6 7 10
15 10 12 0 13 -4 5 -19 -16 -30 -12 -38 18 -37 22 1 28 6 30 29 2 15 -1 27 -7
27 -6 0 -11 7 -11 15 0 8 5 15 10 15 6 0 10 -5 10 -10 0 -6 8 -10 18 -8 12 2
16 -3 15 -19 -2 -19 2 -21 34 -18 21 1 39 7 41 13 2 6 11 8 19 5 12 -5 15 -2
10 10 -4 10 0 18 13 22 10 3 21 13 24 21 3 8 11 12 16 9 6 -4 17 -2 25 5 10 8
15 8 20 -1 4 -6 1 -16 -6 -21 -11 -7 -11 -11 -1 -15 6 -2 12 -12 12 -21 0 -13
6 -10 25 11 14 15 25 34 23 43 -2 10 3 19 11 22 9 3 11 0 7 -7 -9 -15 11 -41
32 -41 11 0 13 8 8 39 -6 37 -5 38 20 33 14 -2 28 -11 31 -18 3 -8 11 -14 19
-14 7 0 16 -11 20 -25 4 -18 13 -25 29 -25 34 0 42 20 16 39 -17 13 -19 19 -9
29 11 11 10 16 -4 26 -27 20 -21 29 6 11 17 -11 23 -23 19 -38 -2 -15 1 -12
10 8 8 17 12 36 9 44 -4 10 -1 13 12 8 10 -4 22 -5 27 -1 15 9 -10 44 -31 44
-11 0 -20 5 -20 10 0 6 7 10 16 10 8 0 12 5 8 11 -3 6 0 15 7 20 11 7 9 9 -6
10 -11 1 -23 1 -26 1 -4 -1 -15 8 -24 18 -10 11 -23 20 -29 20 -7 0 -7 -3 1
-8 16 -10 4 -27 -24 -36 -19 -6 -23 -4 -23 16 0 17 3 19 9 9 5 -8 11 -9 15 -3
3 6 2 13 -4 17 -5 3 -10 12 -10 20 0 16 34 14 68 -4 29 -15 29 3 0 23 -17 12
-19 19 -11 27 9 9 16 9 28 -1 10 -8 15 -9 15 -1 0 6 -4 11 -10 11 -5 0 -6 8
-3 18 8 20 33 47 45 47 8 0 9 12 1 33 -8 19 -23 14 -23 -7 0 -11 -4 -23 -10
-26 -6 -3 -10 5 -10 19 0 14 7 29 15 34 13 7 12 12 -10 32 -14 13 -25 29 -25
36 0 13 -37 44 -53 44 -5 0 -7 -7 -3 -15 7 -20 -13 -19 -37 2 -18 17 -19 17
-32 0 -13 -18 -45 -24 -45 -8 0 5 -11 8 -25 7 -17 -1 -25 -7 -25 -19 0 -14 5
-17 21 -12 18 6 19 5 10 -13 -6 -12 -15 -23 -20 -27 -9 -5 -81 63 -81 76 0 3
-9 16 -20 29 -11 13 -20 37 -20 55 0 26 5 33 33 43 17 6 52 14 77 18 25 4 50
10 55 14 6 4 22 10 37 14 15 3 51 29 80 56 63 60 86 69 105 44 7 -9 16 -15 20
-11 3 4 -1 15 -11 26 -16 17 -15 19 11 36 15 10 34 24 41 32 7 7 31 17 52 23
22 6 42 15 45 20 3 6 11 10 16 10 6 0 1 -13 -10 -29 -26 -35 -26 -49 -2 -80
l18 -24 15 22 c13 18 16 19 22 6 3 -9 -3 -24 -14 -35 -23 -23 -26 -50 -6 -50
22 0 27 -29 10 -56 -9 -13 -20 -24 -25 -24 -5 0 -6 -7 -3 -15 4 -8 2 -15 -3
-15 -5 0 -10 -13 -10 -30 0 -35 10 -38 39 -10 19 17 19 20 5 20 -9 0 -17 5
-17 10 0 6 4 10 10 10 5 0 7 7 4 15 -4 8 -1 15 5 15 6 0 11 -7 11 -15 0 -8 7
-15 15 -15 8 0 15 -7 15 -15 0 -8 -4 -15 -10 -15 -5 0 -10 -7 -10 -15 0 -8 -4
-15 -9 -15 -5 0 -12 -12 -16 -27 -3 -15 -11 -31 -17 -34 -6 -4 1 -6 16 -6 20
2 26 6 22 20 -2 9 0 15 5 11 5 -3 9 -18 9 -35 0 -16 5 -29 10 -29 10 0 15 41
11 86 -1 18 5 21 44 22 44 2 45 2 39 -24 -6 -24 -5 -25 15 -15 23 13 61 6 61
-10 0 -5 12 -9 26 -9 20 0 25 -4 20 -16 -3 -9 -6 -20 -6 -25 0 -5 -3 -8 -7 -7
-16 3 -43 -15 -43 -27 0 -8 9 -17 20 -20 20 -6 20 -7 -2 -24 -13 -10 -36 -16
-53 -15 -16 1 -36 3 -42 3 -7 1 -13 8 -13 16 0 8 -4 15 -9 15 -5 0 -11 8 -14
18 -3 15 -5 15 -12 -3 -5 -11 -15 -25 -23 -31 -13 -9 -13 -12 2 -17 9 -4 16
-2 16 4 0 6 4 7 10 4 5 -3 -2 -16 -17 -29 -25 -22 -26 -24 -10 -40 18 -19 23
-41 7 -31 -18 11 -24 -27 -7 -40 19 -14 23 -55 6 -55 -8 0 -8 -4 -1 -12 7 -9
5 -20 -9 -37 l-19 -23 0 25 c0 16 -7 28 -19 32 -22 7 -35 44 -21 60 5 6 5 17
0 25 -5 8 -7 22 -4 32 2 9 1 19 -4 22 -13 8 -23 -46 -11 -60 5 -6 4 -15 -2
-21 -5 -5 -11 -24 -12 -41 -1 -20 -8 -33 -20 -36 -15 -4 -17 -8 -7 -25 12 -24
30 -28 30 -7 0 7 6 19 13 25 11 8 17 5 26 -16 8 -18 9 -29 1 -37 -5 -5 -10
-30 -10 -54 0 -26 -4 -41 -10 -37 -5 3 -10 -1 -10 -10 0 -19 21 -15 30 6 4 8
12 24 19 37 6 13 9 27 6 32 -3 6 1 7 9 4 11 -4 17 3 22 23 8 33 25 47 36 30
12 -19 9 -37 -6 -37 -14 0 -30 -29 -21 -38 3 -3 5 0 5 6 0 7 5 12 11 12 7 0
10 -14 7 -35 -4 -31 -2 -34 15 -29 17 5 19 2 15 -25 -3 -19 1 -36 9 -42 7 -6
13 -18 13 -26 0 -8 4 -11 10 -8 5 3 10 -1 10 -9 0 -8 6 -19 14 -23 7 -4 16
-15 19 -23 3 -8 6 -2 6 14 1 16 -6 38 -16 48 -18 21 -14 31 10 22 10 -3 19
-23 23 -50 3 -24 11 -47 17 -51 6 -4 8 0 4 10 -4 11 -1 17 8 17 10 0 12 9 8
36 -6 35 -5 36 18 29 43 -13 69 -35 69 -59 0 -29 38 -43 47 -18 4 9 1 18 -5
20 -7 2 -12 17 -12 33 0 16 -4 29 -10 29 -5 0 -10 4 -10 8 0 4 16 8 35 8 26 0
35 -4 35 -17 0 -10 -5 -19 -12 -21 -7 -3 -5 -13 7 -31 9 -15 14 -27 10 -27 -3
0 3 -14 15 -30 17 -24 25 -28 35 -20 9 8 15 8 20 0 12 -19 24 -10 30 24 6 27
11 33 26 29 10 -3 19 -11 19 -18 0 -7 6 -15 14 -18 9 -3 12 -15 9 -31 -3 -16
-1 -26 6 -26 7 0 9 -5 6 -10 -4 -6 -11 -8 -16 -4 -6 3 -13 -3 -16 -15 -5 -19
-15 -25 -35 -22 -13 2 -9 -22 7 -53 9 -16 13 -32 10 -35 -8 -8 -25 20 -25 42
0 9 -4 17 -10 17 -13 0 -13 -16 1 -42 12 -23 2 -39 -11 -18 -15 23 -12 66 5
80 22 18 16 88 -7 74 -5 -3 -4 -11 3 -20 9 -11 8 -14 -5 -14 -9 0 -16 8 -16
20 0 16 -6 19 -30 16 -17 -2 -33 -6 -37 -9 -11 -11 7 -39 22 -34 8 4 24 -3 37
-13 13 -11 18 -19 12 -20 -14 0 -27 -64 -19 -90 4 -11 15 -20 27 -20 14 0 18
-5 14 -15 -3 -8 -1 -15 3 -15 5 0 12 6 14 13 4 9 6 9 6 -1 1 -7 6 -10 12 -6 6
3 15 0 20 -7 13 -22 23 -1 11 25 -8 19 -8 26 1 29 9 3 9 8 -2 20 -11 14 -11
18 3 23 13 5 15 14 10 40 -5 28 -3 33 9 29 15 -6 31 25 27 58 -1 9 4 17 10 17
7 0 10 -6 8 -12 -3 -7 4 -22 15 -33 20 -20 20 -20 14 2 -3 13 -1 26 5 29 5 3
7 12 4 20 -3 7 3 18 12 24 13 8 14 11 4 18 -21 14 -5 62 21 59 18 -2 21 3 21
51 0 28 -3 52 -7 52 -4 0 -10 0 -14 0 -5 0 -8 -17 -8 -37 0 -32 -4 -39 -23
-41 -20 -3 -23 -8 -17 -29 5 -22 3 -25 -15 -20 -17 4 -21 2 -18 -11 3 -10 -1
-23 -9 -30 -11 -11 -16 -10 -28 2 -21 21 -19 56 3 56 14 0 15 2 2 10 -8 5 -22
7 -31 5 -9 -3 -22 1 -29 10 -9 11 -9 15 -1 15 8 0 10 8 6 20 -6 17 -2 20 29
20 20 0 36 -4 36 -10 0 -14 22 -8 37 10 11 12 14 13 22 1 6 -10 10 -10 16 -1
6 10 -20 39 -37 40 -3 0 -9 8 -11 18 -4 13 -5 12 -6 -5 -1 -27 -19 -39 -27
-18 -6 14 -8 14 -19 -1 -12 -17 -35 -12 -35 7 0 6 4 8 9 4 5 -3 12 -1 16 5 3
5 -1 10 -9 10 -21 0 -20 17 0 28 15 8 15 11 -1 35 -10 15 -22 24 -31 20 -9 -3
-14 1 -14 11 0 9 7 19 15 22 23 9 19 33 -5 27 -11 -3 -20 -12 -20 -20 0 -8 -4
-11 -10 -8 -17 11 -11 31 18 60 26 27 26 28 3 20 -17 -5 -22 -4 -18 6 2 8 10
13 17 11 7 -2 10 3 7 12 -4 9 0 19 7 23 7 5 16 26 20 48 6 30 5 37 -4 29 -6
-6 -12 -21 -13 -33 -1 -11 -10 -24 -22 -27 -11 -4 -26 -14 -33 -23 -12 -14
-13 -13 -8 8 7 36 -11 47 -69 43 -39 -2 -55 1 -65 13 -12 14 -12 18 0 25 9 5
17 5 20 -1 4 -5 16 -11 28 -14 19 -3 22 1 22 26 0 17 5 29 13 29 8 0 20 11 27
25 14 26 40 34 40 13 0 -6 3 -9 6 -6 3 4 0 16 -6 29 l-12 22 -17 -21 c-16 -20
-16 -20 -38 -2 -26 21 -32 55 -8 46 8 -3 15 -1 15 4 0 19 -29 10 -41 -12 -11
-20 -12 -20 -21 -3 -8 13 -5 22 14 39 13 13 30 21 38 19 12 -4 13 -3 1 5 -7 5
-11 14 -7 20 3 6 2 13 -3 16 -5 3 -11 -1 -15 -9 -3 -8 -12 -15 -21 -15 -9 0
-18 -12 -21 -30 -7 -34 -24 -41 -24 -10 0 11 -7 20 -15 20 -17 0 -20 -21 -4
-37 8 -8 7 -16 -2 -30 -10 -17 -9 -24 4 -44 18 -25 23 -64 8 -54 -6 3 -15 -3
-21 -12 -9 -15 -10 -12 -6 15 3 18 1 32 -4 32 -6 0 -10 -18 -10 -40 0 -44 -17
-53 -37 -21 -10 16 -9 20 8 24 23 6 26 27 3 27 -9 0 -14 6 -11 13 2 6 16 12
30 11 31 0 33 3 10 28 -9 11 -11 18 -5 18 17 0 15 27 -2 37 -11 6 -13 17 -7
43 7 33 14 38 46 30 6 -1 20 -2 32 -1 16 1 20 6 16 21 -3 11 0 20 6 20 6 0 11
-4 11 -10 0 -5 4 -10 9 -10 5 0 7 9 4 20 -3 11 -14 20 -24 20 -11 0 -19 4 -19
9 0 13 26 32 33 24 4 -3 14 0 22 7 12 10 19 10 27 2 7 -7 16 -12 20 -12 14 0
9 37 -7 50 -18 15 -11 30 16 30 10 0 19 4 19 9 0 11 44 23 62 16 7 -3 19 -20
26 -38 20 -48 27 -60 40 -65 7 -2 12 3 12 12 0 10 -6 13 -15 10 -8 -4 -15 -1
-15 5 0 15 41 13 63 -3 16 -12 16 -15 1 -26 -9 -8 -13 -22 -10 -36 4 -13 0
-27 -10 -35 -14 -11 -18 -11 -29 4 -19 26 -32 20 -31 -13 1 -24 5 -29 19 -24
9 3 17 2 17 -3 0 -5 9 -9 20 -10 12 -1 20 4 20 15 0 12 3 13 12 4 17 -17 26
-15 24 6 -2 26 54 20 100 -12 47 -32 62 -33 66 -3 3 25 44 35 77 18 16 -9 21
-7 26 9 4 14 15 20 36 20 16 0 32 0 37 0 4 1 8 -8 10 -20 2 -11 8 -20 13 -20
14 0 10 -52 -6 -80 -8 -14 -14 -31 -15 -38 0 -23 23 -8 27 17 1 12 9 34 17 49
12 24 12 30 0 47 -8 10 -14 24 -14 30 0 12 62 35 96 35 11 0 34 21 53 45 36
49 59 56 79 25 9 -15 23 -20 52 -20 l40 0 0 299 0 299 -31 11 c-41 14 -38 54
4 59 l27 3 0 208 0 207 -35 17 c-20 9 -38 24 -41 32 -5 11 -23 13 -105 8 -84
-5 -102 -4 -118 11 -12 11 -16 25 -13 41 7 39 -7 93 -30 115 -15 13 -36 20
-63 20 -51 0 -65 13 -65 62 0 44 -34 98 -61 98 -38 0 -44 -9 -40 -61 2 -37 -1
-55 -15 -70 -26 -29 -45 -24 -93 25 -33 34 -42 49 -36 65 4 15 14 21 28 19 12
-1 41 4 65 12 37 12 42 17 37 34 -4 12 -10 45 -14 74 -6 51 -8 55 -54 80 l-47
27 -26 -32 c-28 -36 -80 -46 -90 -18 -4 8 -12 15 -19 15 -7 0 -15 -7 -19 -15
-3 -9 0 -15 8 -15 7 0 21 -10 32 -21 10 -12 33 -28 51 -35 39 -17 35 -36 -10
-50 -22 -6 -36 -19 -46 -42 -16 -34 -19 -35 -88 -6 -28 11 -33 18 -33 46 0 19
7 43 15 56 12 16 13 27 5 41 -5 11 -10 31 -10 45 0 14 -3 26 -7 27 -5 0 -23 2
-42 4 -31 3 -35 0 -54 -44 -13 -27 -24 -78 -28 -126 -3 -44 -8 -86 -10 -94 -3
-9 8 -17 27 -22 17 -5 37 -16 44 -24 19 -23 39 -18 81 20 66 60 93 43 87 -54
-2 -31 1 -45 12 -51 8 -4 25 -12 37 -18 28 -15 80 -16 88 -2 6 10 48 14 57 5
12 -12 -6 -65 -23 -70 -11 -4 -30 -18 -43 -32 -29 -31 -51 -26 -68 14 -7 15
-13 29 -14 31 -1 2 -12 -6 -24 -18 -20 -20 -23 -21 -47 -5 -21 14 -29 15 -48
5 -13 -7 -26 -21 -28 -31 -3 -12 -14 -19 -30 -19 -59 0 -80 -33 -27 -43 21 -5
30 -12 30 -27 0 -11 -7 -20 -15 -20 -8 0 -15 -8 -15 -19 0 -25 -24 -43 -52
-39 -27 4 -35 30 -15 49 7 8 14 22 14 32 0 15 -2 16 -17 2 -9 -8 -22 -15 -29
-15 -8 0 -11 -11 -9 -27 2 -23 -3 -31 -29 -43 -17 -8 -34 -23 -36 -33 -3 -10
-11 -16 -19 -15 -8 2 -14 -8 -16 -24 -3 -24 -8 -27 -75 -39 -40 -7 -88 -13
-108 -14 -21 0 -43 -6 -51 -12 -7 -6 -26 -15 -41 -18 -16 -4 -31 -14 -34 -21
-7 -19 -38 -18 -58 3 -14 14 -18 14 -26 2 -6 -9 -3 -18 8 -26 22 -17 12 -26
-20 -18 -17 5 -24 12 -20 21 3 9 -2 14 -16 14 -25 0 -39 44 -22 71 15 25 14
29 -5 29 -9 0 -14 7 -12 18 2 13 11 16 35 14 24 -3 33 1 38 17 3 12 13 21 21
21 18 0 18 -14 1 -32 -18 -18 -28 -48 -16 -48 5 0 9 -8 7 -17 -2 -15 3 -17 31
-15 19 1 41 8 48 14 11 9 8 14 -16 29 -40 24 -45 36 -22 51 15 9 17 16 10 30
-6 10 -13 16 -17 14 -5 -3 -14 -1 -22 4 -19 12 1 35 33 38 32 2 64 -32 48 -51
-13 -16 -5 -27 21 -27 10 0 18 6 18 14 0 22 16 28 43 15 20 -9 31 -8 53 5 16
8 37 18 47 22 14 5 17 13 13 33 -6 24 -8 39 -15 96 -2 16 -6 13 -17 -12 -8
-18 -21 -33 -29 -33 -18 0 -78 87 -71 105 2 7 15 15 28 17 20 3 23 8 20 38 -2
19 -9 44 -16 55 -11 17 -11 23 0 33 19 17 18 32 -2 32 -10 0 -14 7 -12 22 4
31 -18 33 -46 5 -14 -14 -35 -28 -46 -32 -11 -4 -17 -11 -14 -17 4 -6 -1 -17
-12 -25 -16 -11 -16 -15 -5 -22 8 -5 16 -24 18 -43 2 -21 12 -40 28 -51 15
-11 25 -29 25 -43 0 -19 -5 -24 -26 -24 -23 0 -25 3 -20 25 6 23 4 25 -26 25
-44 1 -71 25 -93 85 -20 55 -35 78 -35 54 0 -19 -63 -39 -85 -26 -12 6 -15 16
-11 33 6 24 4 26 -39 28 -15 1 -20 8 -20 28 -1 37 -6 40 -65 43 -55 3 -90 27
-90 63 0 31 29 47 84 47 45 0 51 3 54 23 2 12 8 22 14 22 5 0 19 11 30 25 33
43 57 30 63 -33 3 -33 24 -92 33 -92 13 1 38 25 45 43 8 22 25 18 44 -9 12
-18 11 -24 -7 -46 -30 -39 -18 -85 23 -91 35 -5 63 22 82 77 6 17 24 37 45 49
19 10 51 34 70 53 36 34 65 42 107 29 18 -6 23 -2 29 21 6 24 2 32 -24 52 -31
24 -31 25 -15 55 14 28 14 33 -2 63 -13 25 -14 36 -6 52 6 11 11 34 11 50 0
19 8 35 23 45 l22 15 -21 22 c-28 28 -44 19 -44 -26 0 -19 -4 -34 -8 -34 -14
0 -32 -48 -32 -83 0 -41 -9 -54 -43 -62 -15 -4 -27 -11 -27 -16 0 -18 -26 -8
-63 24 -29 24 -40 41 -44 73 -5 39 -4 40 33 52 42 12 53 5 54 -33 1 -43 39
-57 54 -19 8 22 -15 64 -35 64 -29 0 -52 42 -40 73 6 14 17 30 27 35 10 6 20
31 26 68 8 52 7 60 -9 69 -35 20 -83 73 -83 93 0 36 27 52 88 52 167 1 176 0
195 -22 11 -13 16 -30 13 -42 -8 -31 8 -49 41 -47 93 8 96 7 115 -25 10 -17
23 -70 30 -118 12 -94 20 -102 65 -66 14 11 39 20 54 20 37 0 107 30 114 49 3
7 -2 25 -11 38 -11 17 -14 36 -9 63 8 50 19 62 85 99 49 27 58 29 80 18 28
-14 40 -68 20 -92 -16 -19 -30 -74 -23 -91 4 -10 8 -12 12 -5 5 7 18 7 44 -1
32 -10 39 -17 48 -52 21 -78 24 -83 70 -89 53 -7 59 -4 59 34 0 17 8 44 17 62
9 18 18 50 21 72 2 26 16 57 41 90 20 28 44 61 53 75 9 14 26 35 38 48 l22 23
-26 26 c-34 34 -33 58 4 73 17 7 30 16 30 20 0 4 16 18 35 31 42 29 44 49 6
91 l-28 32 -103 1 c-86 0 -105 3 -114 17 -8 13 -6 25 7 48 l18 30 -199 0
c-188 0 -200 -1 -218 -21 -18 -20 -18 -21 5 -63 18 -35 22 -56 20 -108 -3 -58
-1 -68 23 -97 24 -27 26 -35 16 -61 -12 -36 -19 -41 -66 -47 -21 -3 -46 -12
-57 -19 -30 -21 -75 -17 -112 12 -18 14 -49 28 -68 31 -20 3 -38 9 -41 14 -2
5 -27 11 -54 15 -47 6 -50 9 -76 58 -26 50 -28 82 -7 111 5 6 42 31 83 55 99
58 140 89 140 106 0 12 -181 14 -1164 14 l-1165 0 -3 -32 c-3 -36 -26 -46 -74
-34 -20 5 -24 12 -22 34 l3 27 -129 2 c-100 2 -133 -1 -149 -12 -27 -19 -37
-19 -37 0 0 12 -18 15 -101 15 -65 0 -98 -4 -94 -10 11 -18 -27 -24 -40 -7 -9
13 -28 17 -75 17 -59 0 -62 -1 -57 -22 2 -13 8 -31 12 -40 4 -10 3 -18 -3 -18
-15 0 -72 53 -72 67 0 19 -193 18 -209 -1 -9 -10 -8 -15 4 -20 8 -3 15 -12 15
-20 0 -9 9 -20 21 -27 27 -14 15 -25 -41 -39 -77 -19 -75 -19 -72 25 2 22 8
44 13 50 5 5 9 17 9 27 0 17 -15 18 -230 18 -137 0 -230 -4 -230 -9z m724 -63
c8 -13 5 -24 -11 -47 -17 -22 -21 -38 -16 -64 4 -28 1 -37 -18 -51 -39 -27
-99 -19 -99 14 0 10 14 30 31 45 31 25 31 27 19 64 -7 22 -9 44 -5 50 11 18
86 9 99 -11z m146 -285 c14 -9 28 -21 32 -27 10 -15 -11 -36 -34 -36 -11 0
-22 -8 -25 -19 -2 -10 -17 -25 -31 -32 -15 -8 -29 -17 -32 -20 -3 -3 -24 -8
-47 -12 -38 -4 -43 -3 -43 14 0 10 4 19 9 19 13 0 61 45 61 57 0 17 53 73 69
73 9 0 28 -8 41 -17z m2045 -151 c6 -13 20 -25 32 -28 41 -11 55 -37 47 -89
-6 -41 -12 -51 -55 -82 -27 -19 -47 -38 -44 -43 3 -4 -2 -14 -11 -21 -12 -9
-17 -10 -23 -1 -4 6 -18 13 -31 15 -33 5 -47 30 -33 59 6 13 14 37 19 53 8 25
15 30 46 33 31 3 36 7 40 33 5 33 -7 48 -25 30 -16 -16 -64 -13 -71 4 -20 53
86 90 109 37z m246 -111 c31 -32 62 -74 68 -94 11 -33 15 -36 42 -30 28 5 29
5 29 -36 0 -34 3 -41 20 -41 28 0 25 -18 -4 -26 -31 -7 -46 1 -46 27 0 33 -28
22 -32 -13 -4 -44 -26 -46 -71 -6 -20 18 -50 44 -67 57 -40 33 -46 56 -21 87
26 33 26 49 3 66 -25 18 -33 34 -26 52 12 31 48 17 105 -43z m-2448 -264 c-6
-11 29 -21 90 -26 5 -1 7 -6 5 -12 -2 -6 -6 -9 -8 -7 -9 5 -47 -36 -54 -59 -4
-14 -15 -23 -26 -23 -17 0 -19 5 -14 33 6 28 5 30 -7 15 -20 -25 -41 -25 -70
-3 -22 18 -30 49 -20 85 0 3 25 5 55 5 30 0 52 -3 49 -8z m1977 -54 c0 -14 23
-43 34 -43 3 0 6 7 6 16 0 8 5 12 10 9 6 -3 10 -17 10 -31 0 -13 3 -24 6 -24
12 0 34 29 34 45 0 15 37 35 66 35 20 0 10 -48 -21 -104 -19 -33 -29 -41 -52
-41 -25 0 -28 -4 -31 -35 -1 -19 1 -30 5 -24 10 13 81 26 87 15 3 -4 -8 -18
-24 -30 -35 -25 -40 -61 -10 -61 11 0 20 -1 20 -3 0 -1 4 -17 9 -35 8 -28 6
-37 -17 -65 -14 -17 -22 -29 -17 -24 4 4 18 1 31 -7 23 -16 34 -12 34 11 0 8
-5 11 -12 7 -7 -4 -6 0 2 9 20 19 60 32 60 18 0 -6 -7 -11 -15 -11 -8 0 -15
-6 -16 -12 -1 -7 -2 -22 -3 -33 0 -11 -7 -19 -15 -17 -7 1 -18 -1 -25 -6 -6
-5 -30 -7 -53 -4 -34 3 -43 8 -43 23 0 11 -7 22 -15 25 -23 9 -19 37 4 29 14
-4 23 0 31 15 9 16 8 20 -5 20 -9 0 -18 7 -21 15 -9 21 -27 7 -21 -17 4 -15 1
-19 -16 -16 -17 2 -23 11 -25 41 -4 41 -22 51 -22 12 0 -28 -25 -44 -42 -27
-9 9 -7 17 6 31 11 12 15 27 12 39 -4 12 2 28 17 44 31 33 43 86 22 94 -8 4
-15 12 -15 19 0 9 -14 11 -50 7 -47 -4 -66 7 -40 23 6 3 10 15 10 25 0 11 10
22 23 26 12 3 30 15 40 25 19 20 47 15 47 -8z m-510 -78 c15 -18 5 -34 -18
-29 -24 7 -52 -53 -31 -68 10 -6 3 -7 -21 -3 -28 5 -32 4 -17 -5 10 -6 31 -12
47 -12 20 -1 35 -9 46 -25 18 -28 12 -42 -11 -23 -8 7 -15 8 -15 2 0 -5 7 -12
15 -16 8 -3 15 -12 15 -20 0 -17 -55 -27 -71 -12 -8 8 -9 2 -4 -21 6 -28 4
-33 -12 -33 -21 0 -63 -27 -63 -39 0 -5 9 -11 21 -14 16 -4 19 -11 14 -26 -7
-23 4 -28 23 -9 9 9 12 9 12 -1 0 -7 -13 -18 -29 -24 -24 -9 -27 -13 -15 -22
13 -9 12 -13 -6 -33 -12 -13 -33 -22 -50 -22 -16 0 -32 -4 -35 -10 -9 -14 -75
-13 -75 2 0 6 -3 8 -6 5 -4 -4 -1 -13 6 -22 7 -9 10 -18 6 -22 -3 -3 -6 -1 -6
7 0 9 -3 10 -13 1 -10 -8 -19 -6 -34 8 -14 13 -24 16 -36 9 -9 -5 -17 -6 -17
-2 0 9 100 163 117 182 7 7 13 18 13 23 0 5 7 9 15 9 9 0 20 20 30 53 14 48
64 115 135 182 6 6 19 18 28 28 20 21 26 21 42 2z m-654 -196 c3 -6 0 -15 -7
-20 -12 -7 -11 -9 1 -9 22 0 46 -40 30 -50 -9 -6 -9 -13 -1 -28 15 -29 14 -42
-5 -42 -11 0 -14 6 -9 20 7 23 8 23 -34 9 -35 -12 -37 -32 -3 -37 12 -2 22 -8
22 -14 0 -6 -13 -8 -30 -6 -17 3 -30 0 -30 -6 0 -6 -4 -4 -10 4 -11 19 -19 10
-22 -23 -1 -15 -5 -27 -9 -27 -4 0 -10 -7 -13 -16 -3 -8 -2 -12 4 -9 6 3 10
-3 10 -14 0 -12 -7 -22 -15 -22 -8 -1 -21 -2 -27 -3 -7 -1 -18 -8 -25 -16 -9
-10 -12 -11 -13 -2 0 6 -8 12 -17 12 -9 0 -25 8 -36 18 -19 16 -20 16 -14 0 4
-10 4 -25 0 -34 -5 -13 -8 -13 -15 -2 -7 9 -8 1 -5 -24 5 -35 4 -37 -17 -28
-17 6 -28 4 -39 -8 -14 -13 -17 -14 -22 -1 -6 15 54 159 66 159 4 0 10 -10 14
-22 3 -13 9 -18 11 -11 3 7 0 21 -6 32 -13 25 -3 71 15 71 8 0 16 14 20 30 6
28 25 43 25 20 0 -5 7 -10 16 -10 8 0 13 4 10 8 -2 4 -1 14 5 22 6 10 9 11 9
3 0 -7 5 -13 11 -13 6 0 19 -10 30 -22 l19 -23 6 23 c6 20 16 26 37 23 4 0 7
8 7 19 0 26 27 80 40 80 5 0 12 -5 16 -11z m-746 -69 c0 -5 11 -10 24 -10 23
0 24 -1 13 -37 -6 -20 -22 -48 -34 -62 -21 -22 -22 -26 -8 -47 21 -33 19 -42
-12 -46 -22 -2 -29 -9 -31 -30 -2 -16 -7 -28 -11 -28 -5 0 -24 -3 -42 -6 -28
-4 -31 -3 -16 6 11 7 18 22 16 38 -1 15 2 36 7 47 8 20 8 20 14 -2 5 -21 5
-21 28 -3 30 25 23 36 -28 44 -43 7 -55 26 -16 26 17 0 26 7 30 24 3 13 15 26
26 29 21 5 27 31 10 42 -17 10 -11 25 10 25 11 0 20 -4 20 -10z m1770 -204 c0
-8 7 -17 16 -20 11 -4 15 -14 12 -31 -4 -19 0 -26 16 -31 12 -3 30 -14 40 -23
15 -12 20 -13 24 -3 2 7 15 17 28 22 18 7 24 17 24 41 0 36 23 36 28 0 4 -23
9 -24 71 -9 24 5 23 -20 -1 -44 -20 -20 -23 -21 -26 -5 -4 18 -27 23 -36 9 -3
-5 -2 -19 1 -31 4 -16 11 -21 24 -18 22 6 23 4 7 -40 -10 -27 -10 -36 0 -42 9
-5 11 -17 6 -35 l-7 -28 -33 38 c-19 20 -37 34 -41 30 -4 -4 -2 -11 5 -15 7
-4 10 -15 6 -24 -7 -19 -7 -19 -29 -11 -12 5 -13 9 -5 14 7 4 11 13 8 20 -3 9
-8 8 -20 -4 -22 -22 -28 -20 -28 7 -1 20 -2 20 -11 4 -5 -9 -7 -22 -3 -28 3
-6 1 -15 -6 -19 -16 -10 -40 -2 -40 12 0 6 7 8 15 4 8 -3 15 -1 15 4 0 6 -5
10 -12 10 -6 0 -3 9 7 20 10 11 15 23 12 27 -4 3 -7 2 -7 -4 0 -6 -9 -13 -20
-16 -13 -3 -20 0 -20 8 0 8 -10 15 -22 17 -15 2 -24 11 -26 25 -2 15 -13 25
-29 29 -22 6 -24 10 -18 41 4 25 1 41 -14 62 -17 24 -18 30 -7 34 8 3 19 0 25
-7 15 -18 61 -9 54 10 -3 8 0 14 6 14 6 0 11 -6 11 -14z m-217 -72 c5 -29 2
-40 -11 -50 -15 -11 -14 -14 13 -25 23 -9 26 -13 13 -16 -13 -3 -17 -13 -15
-41 2 -42 -15 -55 -25 -20 -6 23 -6 23 -7 1 -1 -15 -6 -21 -15 -17 -8 3 -17 1
-20 -4 -9 -15 5 -44 19 -38 8 3 15 -7 18 -24 5 -21 15 -31 42 -40 19 -6 35
-16 35 -21 0 -5 11 -14 25 -19 22 -8 24 -14 19 -37 -4 -15 -7 -34 -7 -43 0 -8
-7 -21 -16 -27 -14 -11 -14 -14 -1 -23 9 -6 10 -10 3 -10 -6 0 -15 5 -18 10
-3 6 -16 9 -28 9 -17 -1 -18 -2 -4 -6 22 -6 23 -4 -16 -47 -39 -42 -56 -46
-49 -11 2 14 -2 33 -9 42 -13 15 -11 16 12 10 19 -5 26 -3 26 8 0 8 -4 15 -9
15 -4 0 -8 10 -8 22 0 17 3 19 12 10 22 -22 48 -14 48 13 0 14 5 25 10 25 18
0 10 22 -10 27 -11 3 -20 9 -20 14 0 4 -12 9 -27 11 -16 2 -29 8 -29 13 -4 26
-17 55 -26 55 -6 0 -7 7 -4 16 5 12 0 15 -27 13 -18 -2 -38 0 -45 5 -17 10
-15 36 4 36 11 0 13 6 9 19 -3 11 -1 22 5 26 17 11 11 35 -15 59 -14 13 -25
29 -25 37 0 10 -3 10 -12 1 -10 -10 -10 -17 1 -33 19 -31 -2 -76 -40 -84 -17
-4 -35 -15 -41 -24 -10 -17 -13 -17 -30 -2 -25 21 -23 31 7 31 14 0 25 5 25
10 0 6 -7 10 -15 10 -8 0 -15 5 -15 10 0 6 5 10 10 10 6 0 10 9 10 20 0 10 8
24 18 30 16 11 16 11 0 6 -11 -3 -18 0 -18 7 0 7 11 12 25 12 14 0 25 -3 25
-7 0 -5 4 -8 10 -8 6 0 5 10 -2 26 -10 21 -9 27 3 35 9 6 18 4 25 -6 6 -8 14
-12 17 -8 4 3 7 -7 7 -23 0 -22 3 -26 10 -14 5 8 10 11 10 5 1 -5 8 3 16 18
13 24 20 28 41 22 17 -4 29 -1 35 7 6 10 10 10 18 -2 8 -13 10 -12 10 3 0 31
17 10 23 -29z m-1153 -65 c0 -6 9 -9 20 -6 25 7 34 -7 15 -23 -19 -16 -19 -40
0 -40 8 0 15 -4 15 -9 0 -5 -7 -11 -15 -15 -8 -3 -15 -15 -15 -26 0 -26 28
-26 82 0 45 22 73 13 63 -21 -4 -11 1 -22 12 -28 17 -10 16 -12 -7 -31 -17
-13 -40 -20 -71 -20 -43 0 -48 3 -64 33 -37 70 -53 97 -65 112 -7 8 -8 15 -3
15 5 0 7 16 5 35 -3 27 -1 35 12 35 9 0 16 -5 16 -11z m1979 -91 c1 -5 -3 -8
-9 -8 -5 0 -7 -6 -4 -13 7 -18 -22 -42 -31 -27 -4 6 -4 18 -1 26 4 11 1 14
-12 12 -11 -3 -16 -12 -15 -27 2 -16 -2 -22 -15 -19 -9 1 -23 -1 -30 -6 -9 -5
-18 -1 -27 10 -13 18 -14 18 -15 2 0 -10 4 -18 9 -18 5 0 11 -6 14 -13 4 -10
-4 -12 -27 -9 -29 4 -30 3 -12 -10 16 -13 17 -16 4 -21 -9 -3 -29 -4 -44 -2
-16 2 -34 -1 -41 -7 -7 -5 -21 -7 -33 -3 -16 5 -19 12 -14 33 4 15 8 28 9 30
4 5 57 5 75 1 11 -3 15 4 14 28 -2 30 17 50 36 38 4 -3 13 2 20 10 12 14 15
14 30 0 16 -15 19 -14 34 0 9 9 14 20 11 25 -3 5 1 10 7 13 13 4 66 -32 67
-45z m1494 18 c39 -44 67 -84 67 -98 0 -17 -63 -88 -79 -88 -5 0 -26 -16 -45
-35 -23 -22 -41 -33 -51 -29 -47 18 -71 171 -34 217 20 27 74 56 102 57 10 0
28 -11 40 -24z m-2827 -164 c6 -4 16 -17 23 -30 10 -19 10 -28 -4 -48 -8 -13
-13 -25 -10 -25 3 -1 10 -3 15 -4 6 -1 15 -3 20 -4 14 -1 -12 -41 -27 -41 -6
0 -13 4 -15 9 -1 4 -12 11 -23 15 -17 5 -20 1 -22 -24 -1 -17 2 -30 7 -30 18
0 10 -29 -9 -40 -28 -15 -33 -13 -21 9 7 13 7 28 0 45 -12 33 -22 34 -14 2 7
-30 -11 -66 -34 -65 -15 0 -15 1 1 8 17 6 17 8 -2 33 -29 36 -27 58 4 58 29 0
29 0 14 37 -18 48 -20 86 -4 79 8 -3 17 -1 20 4 10 16 28 11 21 -5 -3 -8 -2
-15 3 -15 5 0 11 9 14 20 5 20 23 26 43 12z m1714 -122 c0 -11 -6 -23 -14 -26
-17 -7 -16 -68 2 -86 18 -18 14 -38 -8 -38 -13 0 -24 -10 -30 -25 -9 -24 -30
-35 -30 -15 0 6 -7 10 -15 10 -8 0 -12 6 -9 14 3 8 -4 16 -18 19 l-23 6 23 21
c27 25 28 33 5 26 -10 -3 -33 -7 -50 -8 -18 -1 -33 -6 -33 -10 0 -4 -4 -8 -10
-8 -38 0 20 57 107 106 69 39 103 43 103 14z m830 -60 c29 0 -8 -80 -53 -114
-49 -35 -64 -38 -87 -14 -22 24 -27 84 -8 90 7 3 13 20 13 39 0 32 2 34 40 39
32 4 44 1 62 -17 12 -13 27 -23 33 -23z m-2270 -18 c0 -2 -7 -10 -16 -17 -14
-10 -15 -15 -3 -36 20 -37 21 -126 2 -133 -24 -9 -28 1 -16 34 8 21 8 32 1 36
-14 9 -38 -24 -38 -51 0 -11 -9 -28 -20 -38 -13 -11 -20 -13 -20 -5 0 7 -7 2
-16 -10 l-16 -23 -19 22 c-11 12 -22 19 -27 14 -4 -4 -1 -10 6 -12 6 -3 12
-11 12 -19 0 -17 -27 -19 -32 -2 -3 8 -15 9 -46 1 -22 -6 -43 -8 -46 -6 -8 8
21 33 37 33 8 0 17 9 20 20 3 11 16 24 29 29 18 7 27 4 44 -15 l22 -24 16 35
c9 19 24 35 32 35 19 0 46 63 46 106 0 27 4 32 24 32 13 0 24 -3 24 -6z m1134
-103 c-3 -6 -16 -8 -29 -5 -21 5 -23 2 -28 -47 -2 -28 -3 -54 -1 -56 2 -2 17
-4 33 -4 25 0 29 -4 28 -26 -2 -19 2 -25 14 -23 10 1 19 -6 22 -18 4 -17 9
-19 30 -11 14 5 27 8 30 5 2 -3 2 16 -1 42 -4 36 -2 45 8 39 7 -4 16 -2 21 6
4 7 12 10 16 5 4 -5 2 -11 -4 -13 -7 -3 -13 -11 -13 -19 0 -8 6 -14 13 -15 9
0 9 -2 -1 -6 -6 -2 -10 -9 -7 -13 3 -5 12 -7 20 -3 9 3 15 -1 15 -9 0 -18 -57
-68 -74 -64 -6 2 -8 1 -3 -1 4 -3 7 -13 7 -23 0 -11 10 -24 21 -31 17 -9 19
-13 8 -20 -11 -7 -9 -10 9 -15 28 -8 28 -15 -3 -44 -28 -26 -30 -26 -39 13 -4
18 -2 27 6 27 7 0 5 5 -6 11 -12 7 -21 8 -25 1 -3 -5 -17 -9 -31 -8 -22 1 -25
-3 -22 -31 1 -18 -3 -33 -9 -33 -5 0 -7 -4 -4 -10 3 -5 1 -10 -4 -10 -6 0 -11
6 -11 13 -1 6 -7 -1 -14 -18 -8 -17 -10 -34 -5 -39 12 -13 11 -36 -1 -36 -5 0
-10 8 -10 17 0 14 -3 13 -16 -5 -8 -12 -13 -26 -10 -31 3 -4 -5 -17 -17 -29
-30 -27 -110 -33 -134 -9 -11 11 -13 17 -5 17 7 0 17 12 22 26 7 18 15 24 26
20 45 -17 61 -17 68 1 5 13 -1 25 -19 40 -32 28 -24 45 19 41 17 -2 33 2 36 7
3 6 -10 11 -27 13 -29 3 -33 7 -33 32 0 39 -17 47 -44 21 -17 -16 -30 -20 -50
-15 -14 3 -26 10 -26 14 0 11 -36 23 -72 25 -36 2 -45 12 -31 34 7 11 9 22 6
25 -10 10 -43 7 -43 -4 0 -5 -4 -10 -10 -10 -15 0 -12 21 6 41 11 13 25 16 44
13 21 -5 34 1 59 25 17 17 31 34 31 39 0 11 38 52 48 52 15 0 11 -114 -5 -140
-15 -24 -15 -25 3 -7 14 13 20 37 24 90 5 71 5 72 35 77 24 4 31 11 33 33 2
15 8 25 13 22 5 -4 9 -1 9 5 0 7 7 10 15 7 8 -4 17 -2 20 3 4 6 22 10 41 10
23 0 33 -4 28 -11z m1229 -49 c17 0 39 -7 49 -17 17 -15 19 -15 38 2 17 15 24
16 43 7 12 -7 35 -11 50 -10 21 2 32 -4 45 -25 17 -28 17 -29 -13 -54 -31 -27
-55 -86 -55 -139 0 -17 -9 -43 -20 -57 -11 -14 -20 -34 -20 -45 0 -12 -4 -24
-10 -27 -5 -3 -10 -23 -10 -44 0 -42 -27 -75 -53 -65 -8 3 -27 -2 -41 -11 -25
-16 -25 -16 -32 19 -8 43 7 66 43 66 24 0 24 1 11 23 -12 16 -12 26 -4 39 8
14 7 21 -5 33 -13 14 -20 14 -50 2 -19 -8 -39 -13 -45 -10 -6 2 -19 -6 -29
-17 -28 -30 -55 -26 -55 9 0 32 20 54 42 46 8 -3 22 3 32 13 21 24 14 61 -20
93 -13 12 -24 29 -24 36 0 28 31 73 50 73 22 0 40 27 41 62 0 13 3 17 6 11 2
-7 19 -13 36 -13z m-2313 -471 c0 -5 5 -7 10 -4 6 3 10 2 10 -4 0 -5 -5 -13
-10 -16 -6 -4 -8 -16 -4 -27 4 -13 2 -18 -4 -14 -14 9 -42 -21 -36 -39 4 -10
0 -12 -16 -8 -15 4 -18 8 -10 13 9 5 9 13 2 25 -9 17 -11 15 -26 -11 -14 -23
-16 -25 -13 -7 4 19 1 22 -19 21 -17 -2 -24 -8 -24 -23 0 -14 3 -16 9 -7 6 10
10 10 21 -3 7 -8 18 -15 25 -15 7 0 15 -7 19 -15 3 -8 0 -15 -7 -15 -7 0 -29
-14 -50 -31 -21 -17 -40 -29 -43 -27 -9 9 8 38 22 38 8 0 14 4 14 8 0 21 -16
19 -58 -4 -29 -16 -48 -22 -54 -16 -7 7 -3 14 11 22 12 6 19 16 15 21 -8 13
24 49 43 49 8 0 12 4 8 9 -8 14 45 66 64 63 9 -2 22 -11 29 -20 7 -9 12 -11
12 -4 0 7 7 12 16 12 8 0 12 -4 9 -10 -3 -5 -1 -10 4 -10 6 0 11 2 11 4 0 2 3
11 6 20 4 11 1 16 -10 16 -9 0 -16 5 -16 10 0 6 9 10 20 10 11 0 20 -5 20 -11z
m-57 -218 c-4 -3 -8 -13 -8 -21 0 -9 -12 -15 -35 -17 -47 -4 -57 -16 -43 -52
8 -21 8 -32 0 -40 -8 -8 -6 -11 6 -11 20 0 20 4 8 47 -12 43 11 51 47 18 15
-14 32 -25 39 -25 15 0 18 36 3 45 -10 6 -2 36 14 47 19 13 45 9 65 -11 18
-18 18 -19 -7 -45 -24 -23 -25 -29 -13 -47 9 -16 10 -24 1 -29 -8 -5 -6 -11 4
-20 13 -10 20 -9 41 4 21 14 25 14 25 2 0 -8 -5 -26 -11 -40 -7 -14 -9 -32 -5
-41 5 -15 8 -15 36 2 16 9 30 23 30 30 0 6 4 15 10 18 5 3 2 -14 -7 -39 -9
-25 -22 -44 -27 -43 -12 2 -12 -18 -1 -45 6 -14 2 -18 -15 -18 -12 0 -31 -11
-42 -25 -11 -14 -28 -25 -38 -25 -14 0 -18 -7 -18 -30 1 -16 6 -30 11 -30 15
0 47 31 47 46 0 17 30 45 41 39 18 -12 9 -72 -15 -96 -13 -13 -27 -35 -31 -49
-4 -13 -14 -30 -21 -38 -17 -17 -18 -36 -1 -25 6 4 29 8 51 8 38 0 38 0 42 45
3 31 12 52 29 67 13 13 27 23 30 23 11 0 -9 -55 -24 -67 -13 -11 -14 -14 -2
-22 11 -7 11 -15 1 -47 -16 -50 -28 -63 -40 -44 -8 12 -10 11 -10 -6 0 -23
-26 -51 -37 -40 -3 3 -2 16 4 28 6 13 10 27 9 33 -1 13 -38 14 -60 1 -14 -8
-20 -8 -23 1 -4 10 -8 9 -19 -1 -8 -8 -14 -19 -14 -25 0 -6 -4 -11 -9 -11 -5
0 -16 -7 -25 -15 -14 -14 -17 -14 -36 5 -19 19 -19 20 -1 20 11 0 23 5 26 11
12 18 -1 20 -33 3 -18 -8 -36 -13 -42 -9 -5 3 -10 1 -10 -5 0 -6 -4 -9 -9 -6
-5 4 -7 -2 -4 -13 6 -24 -25 -37 -34 -13 -11 30 -25 43 -37 33 -14 -12 -51 13
-41 29 5 8 10 8 20 0 17 -14 28 13 12 29 -8 8 -8 11 1 11 17 0 15 27 -3 34 -8
3 -15 15 -15 26 0 11 -7 23 -16 27 -8 3 -13 12 -10 20 3 8 -1 22 -10 31 -21
20 -3 28 27 12 17 -10 24 -9 37 4 14 13 14 20 4 36 -17 28 -15 31 13 24 20 -5
25 -2 25 13 0 10 5 24 11 30 8 8 6 19 -5 41 -15 28 -14 30 4 35 11 3 20 10 20
16 0 7 -10 9 -25 5 -19 -5 -25 -2 -25 10 0 9 -4 16 -9 16 -5 0 -7 9 -4 20 3
11 10 20 17 19 46 -6 57 1 55 34 -4 58 1 87 14 87 8 0 22 10 33 21 10 12 28
25 39 29 16 6 21 3 23 -18 2 -14 0 -28 -5 -31z m-623 -202 c0 -6 11 -24 25
-41 32 -38 32 -66 0 -74 -13 -3 -27 -14 -30 -24 -3 -10 -13 -21 -21 -24 -27
-10 -4 -28 28 -21 23 6 29 4 26 -6 -3 -8 -15 -13 -27 -12 -11 2 -21 -2 -21 -8
0 -6 -10 -19 -22 -30 -23 -18 -43 -25 -34 -11 4 7 -6 66 -19 110 -6 16 -3 22
9 22 9 0 16 5 16 10 0 6 -6 10 -14 10 -9 0 -13 10 -11 33 2 31 4 32 44 30 41
-2 55 10 26 21 -22 8 -18 26 5 26 11 0 20 -5 20 -11z m274 -164 c3 -8 15 -15
27 -15 20 0 21 -3 15 -52 -3 -29 -6 -61 -6 -70 0 -10 -4 -18 -9 -18 -5 0 -12
8 -14 18 -3 12 -5 10 -7 -8 -1 -14 -2 -28 -2 -31 1 -4 -8 -5 -18 -2 -15 4 -20
1 -19 -13 6 -67 -16 -99 -39 -57 -9 16 -11 16 -27 0 -10 -11 -14 -25 -10 -37
4 -12 2 -20 -5 -20 -6 0 -10 -10 -8 -22 2 -16 -3 -22 -20 -23 -12 -1 -28 -8
-35 -15 -10 -10 -9 -12 6 -7 9 4 17 2 17 -4 0 -6 5 -7 10 -4 6 3 10 2 10 -3 0
-13 47 -62 60 -62 18 0 11 -18 -10 -25 -20 -6 -29 -45 -10 -45 6 0 10 7 10 15
0 21 39 19 47 -2 3 -10 16 -27 27 -38 l21 -20 -43 -9 c-35 -7 -44 -14 -53 -41
-9 -25 -18 -32 -36 -32 -14 0 -27 6 -30 14 -7 18 25 53 43 46 18 -7 15 9 -7
52 -12 22 -23 30 -45 31 -43 2 -64 14 -64 35 0 10 4 19 10 19 6 0 5 9 -1 24
-10 20 -8 30 10 55 12 17 26 31 29 31 4 0 8 19 8 41 1 23 6 44 12 48 9 5 21
70 23 131 1 14 4 19 6 12 4 -10 8 -10 21 0 10 9 16 10 19 2 2 -6 10 -20 18
-30 13 -17 14 -17 15 -2 0 9 10 18 23 20 18 2 23 11 28 48 7 48 3 63 -11 41
-5 -8 -15 -11 -25 -7 -17 6 -17 8 0 26 22 24 31 25 39 5z m-744 -600 c7 -8 16
-13 20 -10 5 3 12 0 16 -6 5 -9 -3 -10 -27 -5 -30 5 -35 3 -36 -14 -1 -16 3
-19 23 -14 28 7 31 -3 7 -22 -17 -12 -16 -13 8 -14 14 0 34 -7 45 -15 10 -8
29 -15 42 -15 13 0 33 -9 44 -20 21 -19 21 -21 3 -33 -10 -8 -15 -19 -11 -25
4 -7 1 -12 -10 -12 -14 0 -14 -2 -3 -16 12 -14 14 -14 20 3 4 10 14 25 23 32
13 11 17 9 26 -15 6 -15 8 -34 5 -42 -3 -9 0 -19 7 -23 10 -6 10 -11 1 -20 -9
-9 -15 -9 -27 0 -8 7 -24 10 -36 6 -14 -5 -20 -2 -20 9 0 13 -8 11 -40 -10
-22 -15 -40 -31 -40 -36 0 -5 -6 -8 -12 -7 -35 4 -48 -2 -48 -23 0 -17 3 -19
12 -10 14 14 28 16 28 3 0 -5 -9 -13 -20 -16 -22 -7 -24 -13 -10 -35 9 -13 15
-10 36 15 17 20 28 26 31 17 2 -6 9 -10 13 -7 5 3 6 13 3 23 -6 15 -5 15 10 3
15 -12 17 -11 17 10 1 23 1 24 16 4 8 -11 12 -25 10 -32 -3 -7 -1 -15 5 -19 6
-4 4 -13 -7 -25 -18 -20 -16 -23 10 -13 9 3 16 15 16 25 0 23 44 53 66 45 8
-3 13 -10 10 -15 -3 -5 0 -11 8 -14 14 -6 56 31 56 50 0 6 6 16 14 22 11 9 19
5 39 -19 32 -37 26 -60 -12 -55 -26 3 -28 2 -25 -33 1 -20 2 -40 3 -44 1 -4
13 -14 29 -22 24 -14 25 -15 6 -16 -12 0 -35 3 -52 6 -29 6 -30 9 -27 45 3 36
2 39 -21 39 -20 0 -24 -5 -24 -30 0 -16 4 -30 9 -30 4 0 8 -13 7 -30 -1 -21
-6 -30 -18 -30 -11 0 -15 5 -12 15 4 8 1 15 -5 15 -6 0 -11 6 -11 14 0 7 -10
16 -22 20 -41 11 -58 7 -58 -13 0 -11 -3 -26 -6 -35 -5 -14 -8 -14 -21 -1 -8
8 -25 15 -38 15 -15 0 -32 11 -46 33 -34 48 -42 50 -57 12 -11 -26 -20 -35
-38 -35 -13 0 -24 4 -24 9 0 5 -11 11 -23 15 -19 4 -28 19 -42 65 l-18 59 45
69 c25 37 51 78 57 91 16 31 34 28 29 -5 -2 -18 3 -35 14 -45 17 -17 18 -17
18 6 0 19 4 22 23 19 34 -7 59 26 51 65 -4 18 -10 33 -15 33 -35 5 -44 2 -43
-14 2 -17 1 -17 -17 -1 -11 10 -19 12 -19 6 0 -7 -4 -12 -9 -12 -11 0 3 56 24
97 8 15 15 34 15 41 0 16 15 15 30 -3z m955 -336 c39 -1 60 -4 48 -6 -13 -2
-23 -10 -23 -17 0 -13 -42 -26 -85 -26 -22 0 -40 -22 -28 -34 4 -3 35 -6 70
-6 56 0 64 -2 61 -17 -5 -29 -183 -48 -224 -25 -17 10 -16 12 14 18 34 7 54
25 34 32 -7 2 -12 9 -12 16 0 15 -36 46 -45 38 -8 -9 -25 20 -18 31 3 6 35 7
72 3 36 -3 98 -7 136 -7z m-1480 -260 c-68 -23 -100 -52 -115 -108 -6 -24 -17
-41 -29 -44 -24 -6 -45 -74 -35 -113 5 -20 4 -25 -5 -20 -19 12 -61 84 -61
105 0 55 201 202 274 200 26 0 21 -4 -29 -20z m1733 -356 c28 -64 29 -69 14
-95 -18 -31 -42 -40 -63 -24 -15 11 -39 91 -39 128 0 22 27 56 46 57 6 1 25
-29 42 -66z m-1379 1 c2 -2 -12 -21 -32 -43 -19 -21 -38 -53 -42 -70 -4 -17
-11 -31 -16 -31 -6 0 -6 -8 1 -19 14 -28 13 -41 -6 -41 -12 0 -14 -7 -9 -30 5
-24 4 -29 -8 -24 -21 8 -28 41 -11 48 8 3 14 13 14 23 0 13 -3 14 -12 5 -32
-32 -32 -12 2 106 l19 64 -26 -6 c-16 -5 -22 -3 -18 4 3 5 18 10 33 10 15 0
34 5 42 10 13 9 58 5 69 -6z m-159 -29 c0 -2 -19 -14 -42 -26 -45 -22 -88 -57
-88 -70 0 -4 -5 -20 -11 -36 -12 -29 -19 -113 -9 -113 3 0 13 9 23 20 9 11 26
20 38 20 28 0 19 -23 -11 -25 -12 -1 -28 -8 -34 -17 -6 -8 -18 -17 -27 -20
-11 -4 -15 0 -13 15 1 12 3 24 4 27 1 3 1 17 0 32 -1 16 6 42 14 60 20 39 20
41 -3 29 -20 -11 -30 -39 -37 -106 -3 -22 -7 -48 -10 -59 -4 -12 -2 -16 5 -12
7 5 9 1 5 -8 -3 -9 -12 -16 -20 -16 -20 0 -44 -41 -35 -59 5 -9 12 -36 16 -61
4 -25 12 -50 17 -57 6 -7 10 -28 11 -48 1 -23 6 -35 15 -35 18 0 9 -25 -9 -25
-8 0 -27 -13 -42 -29 -20 -20 -31 -25 -40 -18 -14 12 -56 -13 -43 -25 4 -4 11
-1 16 7 5 8 13 11 17 6 4 -4 -18 -32 -49 -62 -56 -51 -58 -55 -58 -104 l0 -50
-20 20 c-11 11 -20 28 -20 39 0 16 67 103 95 123 6 5 5 8 -2 8 -7 0 -18 -9
-25 -20 -29 -45 -50 -17 -62 81 -6 48 -4 62 15 95 20 35 84 121 99 134 3 3 22
26 42 52 27 37 37 61 42 105 9 75 28 111 82 151 68 50 154 94 154 77z m97
-292 c41 -44 45 -47 110 -52 l68 -7 -49 -32 c-53 -34 -66 -38 -66 -21 0 5 -4
8 -9 5 -5 -3 -12 6 -16 22 -6 26 -7 26 -20 8 -11 -14 -11 -24 -4 -38 8 -14 6
-26 -6 -44 -8 -13 -20 -24 -26 -24 -8 0 -7 5 1 15 7 8 9 15 4 15 -5 0 -2 5 6
10 8 5 10 10 4 10 -6 0 -16 19 -23 43 -7 23 -19 55 -27 70 -17 35 -18 67 -2
67 7 0 32 -21 55 -47z m-627 -497 c0 -3 -4 -16 -10 -31 -6 -16 -6 -24 0 -20 5
3 8 -13 7 -40 -2 -35 -6 -45 -19 -45 -10 0 -18 -5 -18 -11 0 -10 -110 -137
-213 -244 l-38 -40 36 75 c45 96 96 178 129 209 14 14 26 33 26 43 0 10 5 18
12 18 6 0 4 6 -7 13 -17 13 -17 14 4 20 14 3 19 1 15 -6 -3 -7 9 4 28 25 30
33 48 45 48 34z m2704 -665 c4 -5 -2 -29 -13 -53 -10 -25 -24 -70 -31 -101 -7
-31 -16 -57 -19 -57 -3 0 -20 13 -37 28 -32 28 -61 113 -49 144 13 32 134 64
149 39z m106 -41 c27 -27 25 -39 -11 -89 -21 -27 -28 -46 -22 -52 10 -10 43
-2 43 11 0 4 16 20 35 34 33 26 36 26 65 11 81 -42 211 -254 251 -410 36 -142
34 -324 -4 -317 -14 2 -16 -4 -12 -37 5 -40 -9 -57 -34 -42 -11 7 -14 18 -26
116 -23 186 -89 322 -211 435 -49 46 -162 120 -183 120 -19 0 4 94 45 188 25
57 34 62 64 32z m-3785 -1052 c-5 -22 -3 -28 10 -28 12 0 15 -5 11 -17 -4 -10
-4 -14 0 -10 4 4 16 0 26 -10 19 -17 25 -39 7 -27 -8 4 -8 0 0 -15 13 -24 23
-28 15 -6 -4 8 -1 15 5 15 6 0 11 -4 11 -8 0 -11 73 -52 91 -52 48 0 98 26
142 74 39 42 45 45 30 19 -10 -18 -21 -33 -25 -33 -5 0 -8 -6 -8 -14 0 -22
-74 -94 -103 -101 -15 -4 -48 -4 -73 0 -35 5 -54 16 -85 47 -22 23 -38 47 -35
55 3 7 1 13 -4 13 -5 0 -12 16 -16 36 -4 21 -16 41 -30 51 -29 18 -31 33 -6
33 15 0 18 6 14 33 l-4 32 17 -29 c10 -19 13 -40 10 -58z"/>
<path d="M5793 5364 c2 -25 -2 -29 -26 -32 -15 -2 -34 4 -43 12 -19 19 -37 21
-31 4 2 -7 10 -13 18 -13 8 0 13 -8 11 -17 -2 -12 3 -15 16 -11 12 3 22 -2 25
-11 6 -16 -11 -21 -55 -18 -31 3 -21 -35 11 -46 16 -6 33 -7 37 -4 3 4 5 1 2
-7 -10 -35 63 -69 76 -36 3 8 15 15 28 15 17 0 19 3 10 12 -9 9 -18 7 -40 -9
-23 -17 -29 -18 -40 -6 -15 15 -8 33 14 33 8 0 14 6 14 14 0 17 24 28 45 20
20 -8 19 5 -2 28 -15 17 -15 18 1 18 10 0 16 6 13 13 -2 6 -12 11 -22 10 -12
-1 -14 2 -6 10 17 17 13 27 -12 27 -13 0 -28 5 -35 12 -8 8 -11 4 -9 -18z"/>
<path d="M6734 5063 c35 -66 35 -80 4 -137 -10 -19 3 -37 36 -49 8 -3 7 -11
-2 -26 -11 -19 -10 -21 8 -21 13 0 20 7 20 19 0 11 5 23 10 26 6 3 10 -3 10
-14 0 -34 15 -33 79 4 l25 14 -37 21 c-38 23 -48 40 -23 40 27 0 27 20 1 32
-20 9 -25 17 -21 32 5 19 4 20 -8 4 -18 -24 -23 -23 -30 7 -4 14 -11 25 -17
25 -6 0 -7 5 -4 11 5 7 15 5 31 -6 15 -9 24 -11 24 -4 0 6 -9 13 -19 16 -11 3
-22 14 -25 26 -5 20 -6 20 -24 4 -24 -22 -29 -21 -35 3 -3 11 -10 20 -17 20
-7 0 -1 -19 14 -47z"/>
<path d="M7532 5030 c-26 -25 -35 -29 -64 -24 -18 4 -39 11 -45 17 -7 5 -13 6
-13 2 0 -4 -7 -2 -15 5 -21 17 -32 4 -17 -20 17 -27 15 -32 -8 -25 -11 4 -20
2 -20 -4 0 -6 -4 -11 -10 -11 -5 0 -10 12 -10 28 0 21 -2 24 -10 12 -5 -8 -7
-25 -3 -37 4 -17 1 -23 -10 -23 -9 0 -23 -7 -32 -17 -15 -15 -14 -18 14 -42
34 -29 39 -46 16 -55 -8 -3 -15 -12 -15 -21 0 -18 16 -20 23 -2 3 7 6 5 6 -5
1 -10 6 -18 12 -18 6 0 8 9 4 21 -6 18 -4 20 14 14 24 -7 25 -6 12 28 -9 22
-7 24 12 19 12 -2 27 -9 34 -14 7 -6 13 -4 16 4 5 11 7 11 15 0 5 -7 16 -10
25 -6 23 9 21 24 -3 24 -28 0 -25 18 5 26 17 4 25 13 25 28 0 11 5 28 10 36 9
13 11 13 20 0 6 -10 6 -16 0 -18 -16 -6 -11 -32 5 -32 8 0 15 5 15 12 0 6 3 9
6 6 3 -4 -2 -20 -10 -37 -20 -37 -20 -51 -2 -51 7 0 16 -8 20 -17 3 -10 9 -24
12 -31 4 -7 0 -10 -9 -6 -10 3 -18 -5 -25 -25 -13 -37 -27 -41 -18 -6 4 17 2
25 -7 25 -7 0 -14 12 -15 27 -3 35 -11 42 -27 20 -7 -10 -19 -15 -29 -11 -11
4 -16 1 -16 -10 0 -11 -7 -16 -17 -14 -13 2 -19 -5 -21 -24 -3 -27 11 -38 23
-18 10 17 22 11 29 -12 l7 -23 9 21 c13 32 28 37 40 14 6 -11 8 -21 5 -21 -3
-1 -9 -2 -14 -3 -20 -3 -22 -15 -2 -25 13 -7 22 -8 26 -1 11 18 26 10 20 -10
-4 -11 -2 -20 4 -20 17 0 35 -43 32 -81 -1 -30 2 -38 20 -42 15 -4 27 0 34 10
7 10 19 14 29 10 11 -5 16 -1 16 12 0 33 11 51 31 51 14 0 19 -7 19 -29 0 -17
5 -33 11 -37 16 -9 33 12 23 28 -14 20 -11 58 3 58 7 0 13 -4 13 -10 0 -5 4
-10 10 -10 6 0 6 9 1 23 -5 14 -5 30 0 40 7 11 6 17 0 17 -5 0 -13 -9 -16 -20
-4 -11 -10 -18 -15 -15 -5 3 -18 -3 -30 -15 -14 -14 -20 -16 -20 -6 0 8 -7 17
-16 20 -22 8 -11 52 19 77 15 12 17 18 8 19 -8 0 -23 -7 -33 -16 -16 -16 -18
-16 -24 0 -3 9 -12 16 -19 16 -14 0 -45 75 -45 110 0 14 5 32 11 40 8 12 10 8
8 -15 0 -16 -1 -36 0 -42 1 -15 41 -18 41 -3 0 6 -7 10 -16 10 -10 0 -14 7
-12 18 2 9 10 16 17 14 9 -2 12 4 8 18 -3 13 0 23 8 27 12 4 12 9 -2 29 -11
18 -24 24 -49 24 -33 0 -45 12 -24 25 13 8 13 25 1 25 -5 0 -23 -13 -39 -30z"/>
<path d="M2736 3473 c-12 -83 -25 -113 -50 -113 -31 0 -47 -19 -35 -42 5 -10
16 -18 24 -18 18 0 18 -9 1 -81 -8 -31 -11 -61 -7 -67 10 -16 135 -26 160 -13
11 7 21 16 21 22 0 6 -4 7 -10 4 -6 -4 -10 5 -10 19 0 14 5 26 11 26 6 0 8 9
4 21 -5 15 -2 22 14 26 12 3 21 6 21 8 0 8 -66 132 -76 142 -7 7 -20 35 -29
63 -9 27 -20 50 -25 50 -4 0 -11 -21 -14 -47z"/>
<path d="M2343 3053 c15 -2 27 -9 27 -14 0 -9 43 -72 60 -89 3 -3 19 -25 35
-50 17 -25 33 -46 38 -48 4 -2 7 -10 7 -17 0 -8 16 -31 35 -52 20 -22 33 -44
29 -53 -3 -8 -2 -11 2 -7 4 4 12 -3 18 -15 6 -13 21 -27 32 -33 27 -13 54 -41
54 -54 0 -6 5 -11 10 -11 14 0 12 37 -2 44 -9 3 -8 8 5 16 16 10 16 13 -5 44
-13 18 -35 48 -50 67 -16 19 -66 84 -112 144 -88 116 -114 136 -174 134 -30
-2 -32 -3 -9 -6z"/>
<path d="M8330 1626 c-19 -6 -44 -17 -55 -24 -14 -10 -15 -12 -3 -8 9 3 63 -2
118 -11 77 -13 106 -14 120 -6 10 7 27 9 39 6 12 -3 27 0 35 6 10 9 16 8 26
-4 18 -22 30 -18 30 9 0 21 -6 24 -55 31 -42 5 -60 3 -77 -9 -28 -20 -42 -20
-35 -2 3 8 -1 17 -9 20 -24 9 -95 5 -134 -8z"/>
</g>
</svg>
